# xmcd
#
# Track frame offsets:
#	182
#	13257
#	24717
#	35365
#	47777
#	61575
#	73970
#	86650
#	99050
#	113665
#
# Disc length: 1682 seconds
#
# Revision: 695325989
# Processed by: cddbd v1.5.2PL0 Copyright (c) Steve Scherf et al.
# Submitted via: EZCDAudioConverter 9.1.1.1
#
DISCID=7a06900a
DTITLE=Various Artist - Country Music Classics Volume XIV 1940's
DYEAR=1992
DGENRE=Country
TTITLE0=Eddy Arnold - Anytime
TTITLE1=Bob Wills and His Texas Playboys - New Spanish Two Step
TTITLE2=Merle Travis - Divorce Me C.O.D.
TTITLE3=The Sons Of The Pioneers - Cool Woman
TTITLE4=Pee Wee King and His Golden West Cowboys - Tennessee Waltz
TTITLE5=Tex Williams - Smoke! Smoke! Smoke! (That Cigarette)
TTITLE6=Al Dexter - Pistol Packin' Mama
TTITLE7=Hank Williams - Lovesick Blues
TTITLE8=Ernest Tubb - Soldier's Last Letter
TTITLE9=Bill Monroe - Kentucky Waltz
EXTD=
EXTT0=
EXTT1=
EXTT2=
EXTT3=
EXTT4=
EXTT5=
EXTT6=
EXTT7=
EXTT8=
EXTT9=
PLAYORDER=
